<svg width="21" height="12" viewBox="0 0 21 12" fill="none" xmlns="http://www.w3.org/2000/svg">
<path d="M1.5 5C0.947715 5 0.5 5.44772 0.5 6C0.5 6.55228 0.947715 7 1.5 7V5ZM19.5 6L20.2071 6.70711C20.5976 6.31658 20.5976 5.68342 20.2071 5.29289L19.5 6ZM15.2071 0.292893C14.8166 -0.0976311 14.1834 -0.0976311 13.7929 0.292893C13.4024 0.683417 13.4024 1.31658 13.7929 1.70711L15.2071 0.292893ZM13.7929 10.2929C13.4024 10.6834 13.4024 11.3166 13.7929 11.7071C14.1834 12.0976 14.8166 12.0976 15.2071 11.7071L13.7929 10.2929ZM1.5 7H19.5V5H1.5V7ZM20.2071 5.29289L15.2071 0.292893L13.7929 1.70711L18.7929 6.70711L20.2071 5.29289ZM18.7929 5.29289L13.7929 10.2929L15.2071 11.7071L20.2071 6.70711L18.7929 5.29289Z" fill="white"/>
</svg>
