<svg width="18" height="14" viewBox="0 0 18 14" fill="none" xmlns="http://www.w3.org/2000/svg">
<path d="M17.9609 3.14128L15.8674 9.69531C15.7109 10.1607 15.3 10.4709 14.8109 10.4709H6.73043C6.26087 10.4709 5.81087 10.18 5.65435 9.75344L2.58261 1.55127H0.782609C0.352174 1.55127 0 1.20224 0 0.775642C0 0.349049 0.352174 1.89361e-05 0.782609 1.89361e-05H3.11087C3.44348 1.89361e-05 3.73696 0.213306 3.85435 0.523555L7.04348 8.90028H14.4783L16.1413 3.66482H6.92609C6.49565 3.66482 6.14348 3.31579 6.14348 2.8892C6.14348 2.4626 6.49565 2.11357 6.92609 2.11357H17.2174C17.4717 2.11357 17.7065 2.2493 17.8435 2.4432C18 2.63711 18.0391 2.9086 17.9609 3.14128ZM7.12174 11.4792C6.78913 11.4792 6.45652 11.615 6.22174 11.8476C5.98695 12.0803 5.85 12.41 5.85 12.7396C5.85 13.0693 5.98695 13.3989 6.22174 13.6316C6.45652 13.8642 6.78913 14 7.12174 14C7.45435 14 7.78696 13.8642 8.02174 13.6316C8.25652 13.3989 8.39348 13.0693 8.39348 12.7396C8.39348 12.41 8.25652 12.0803 8.02174 11.8476C7.78696 11.615 7.45435 11.4792 7.12174 11.4792ZM14.1456 11.4792C13.813 11.4792 13.4804 11.615 13.2457 11.8476C13.0109 12.0803 12.8739 12.41 12.8739 12.7396C12.8739 13.0693 13.0109 13.3989 13.2457 13.6316C13.4804 13.8642 13.813 14 14.1456 14C14.4783 14 14.8109 13.8642 15.0457 13.6316C15.2804 13.3989 15.4174 13.0693 15.4174 12.7396C15.4174 12.41 15.2804 12.0803 15.0457 11.8476C14.8109 11.615 14.4783 11.4792 14.1456 11.4792Z" fill="white"/>
</svg>
