<svg width="180" height="29" viewBox="0 0 180 29" fill="none" xmlns="http://www.w3.org/2000/svg">
<path fill-rule="evenodd" clip-rule="evenodd" d="M45.1815 0.200455C46.3546 0.722907 46.8849 2.10399 46.366 3.28518L35.6828 27.6068C35.164 28.788 33.7924 29.322 32.6194 28.7995C31.4464 28.2771 30.916 26.896 31.4349 25.7148L42.1181 1.39322C42.637 0.212021 44.0085 -0.321997 45.1815 0.200455ZM1.38281 0.570814C2.35271 -0.274366 3.81938 -0.167788 4.65872 0.808865L21.4821 20.3846V2.3392C21.4821 1.04762 22.5219 0.000586297 23.8046 0.000586297C25.0872 0.000586297 26.127 1.04762 26.127 2.3392V26.6608C26.127 27.6374 25.5243 28.5112 24.6155 28.8522C23.7066 29.1932 22.6831 28.9296 22.0484 28.1911L1.1464 3.86953C0.307063 2.89288 0.412906 1.41599 1.38281 0.570814ZM65.1441 0.000586297C66.4267 0.000586297 67.4665 1.04762 67.4665 2.3392V24.3222H79.5433C80.8259 24.3222 81.8657 25.3692 81.8657 26.6608C81.8657 27.9524 80.8259 28.9994 79.5433 28.9994H65.1441C63.8614 28.9994 62.8216 27.9524 62.8216 26.6608V2.3392C62.8216 1.04762 63.8614 0.000586297 65.1441 0.000586297ZM102.01 2.33981C102.01 1.04823 103.05 0.00119217 104.333 0.00119217H121.519C122.409 0.00119217 123.22 0.513115 123.609 1.31929C123.997 2.12547 123.894 3.08418 123.343 3.78777L116.201 12.9084C115.407 13.9226 113.947 14.0965 112.939 13.2968C111.932 12.4972 111.76 11.0267 112.554 10.0124L116.73 4.67842H104.333C103.05 4.67842 102.01 3.63139 102.01 2.33981ZM133.596 0.00119217C134.878 0.00119217 135.918 1.04823 135.918 2.33981V24.3228H147.995C149.277 24.3228 150.317 25.3698 150.317 26.6614C150.317 27.953 149.277 29 147.995 29H133.596C132.313 29 131.273 27.953 131.273 26.6614V2.33981C131.273 1.04823 132.313 0.00119217 133.596 0.00119217ZM165.645 4.67842C160.6 4.67842 156.356 8.98866 156.356 14.5006C156.356 20.0125 160.6 24.3228 165.645 24.3228C170.691 24.3228 174.935 20.0125 174.935 14.5006C174.935 8.98866 170.691 4.67842 165.645 4.67842ZM151.711 14.5006C151.711 6.58009 157.864 0.00119217 165.645 0.00119217C173.426 0.00119217 179.58 6.58009 179.58 14.5006C179.58 22.4211 173.426 29 165.645 29C157.864 29 151.711 22.4211 151.711 14.5006ZM2.90256 12.3908C4.18521 12.3908 5.22501 13.4379 5.22501 14.7294V26.6608C5.22501 27.9524 4.18521 28.9994 2.90256 28.9994C1.61991 28.9994 0.580115 27.9524 0.580115 26.6608V14.7294C0.580115 13.4379 1.61991 12.3908 2.90256 12.3908ZM111.054 15.7044C112.062 16.504 112.234 17.9745 111.44 18.9888L107.264 24.3228H121.519C122.802 24.3228 123.841 25.3698 123.841 26.6614C123.841 27.953 122.802 29 121.519 29H102.475C101.585 29 100.774 28.4881 100.385 27.6819C99.9969 26.8757 100.1 25.917 100.651 25.2134L107.793 16.0928C108.587 15.0786 110.047 14.9047 111.054 15.7044ZM44.2421 17.5402C44.2421 16.2486 45.2819 15.2016 46.5645 15.2016H50.6288C51.5618 15.2016 52.4042 15.7638 52.7677 16.629L56.5997 25.7496C57.0995 26.9391 56.547 28.3113 55.3658 28.8146C54.1845 29.3178 52.8217 28.7615 52.3219 27.572L49.0896 19.8788H46.5645C45.2819 19.8788 44.2421 18.8318 44.2421 17.5402Z" fill="white"/>
<path d="M93.0134 2.33861C93.0134 1.04703 91.9736 2.40947e-07 90.691 2.40947e-07C89.4083 2.40947e-07 88.3685 1.04703 88.3685 2.33861V26.6608C88.3685 27.9524 89.4083 28.9994 90.691 28.9994C91.9736 28.9994 93.0134 27.9524 93.0134 26.6608V2.33861Z" fill="white"/>
</svg>
