<svg width="11" height="20" viewBox="0 0 11 20" fill="none" xmlns="http://www.w3.org/2000/svg">
<path fill-rule="evenodd" clip-rule="evenodd" d="M9.74628 0.723868L7.31712 0.719971C4.58803 0.719971 2.82438 2.52942 2.82438 5.33002V7.45557H0.381963C0.170909 7.45557 0 7.62667 0 7.83773V10.9174C0 11.1285 0.171104 11.2994 0.381963 11.2994H2.82438V19.338C2.82438 19.5491 2.99529 19.72 3.20634 19.72H6.393C6.60405 19.72 6.77496 19.5489 6.77496 19.338V11.2994H9.63072C9.84177 11.2994 10.0127 11.1285 10.0127 10.9174L10.0139 7.83773C10.0139 7.73639 9.97351 7.63934 9.90199 7.56762C9.83047 7.49591 9.73303 7.45557 9.63169 7.45557H6.77496V5.65372C6.77496 4.78768 6.98134 4.34803 8.10949 4.34803L9.74589 4.34745C9.95675 4.34745 10.1277 4.17634 10.1277 3.96548V1.10583C10.1277 0.895167 9.95695 0.724258 9.74628 0.723868Z" fill="white"/>
</svg>
