<svg width="18" height="16" viewBox="0 0 18 16" fill="none" xmlns="http://www.w3.org/2000/svg">
<path d="M17.5202 3.08087C16.6633 1.21181 14.8658 0 12.9221 0C10.9783 0 9.72432 0.842105 8.99281 1.74583C8.26129 0.842105 7.00727 0 5.06353 0C3.11979 0 1.32235 1.21181 0.465436 3.08087C-0.412382 5.03209 -0.0361753 7.18869 1.48956 8.8729C5.14713 12.9191 8.3867 15.7741 8.4285 15.7946C8.5957 15.9384 8.7838 16 8.99281 16C9.20181 16 9.38992 15.9384 9.55712 15.7946C9.59892 15.7741 12.8176 12.8986 16.4961 8.8729C18.0427 7.18869 18.4189 5.03209 17.5202 3.08087ZM15.2629 7.78434C12.5459 10.7625 10.0796 13.104 9.01371 14.0693C7.94779 13.0834 5.48154 10.7625 2.76448 7.76381C1.67766 6.552 1.40595 5.0937 2.01207 3.71758C2.57638 2.46469 3.8095 1.60206 5.08443 1.60206C7.57158 1.60206 8.13589 3.43005 8.19859 3.65598C8.28219 4.02568 8.6166 4.27215 8.99281 4.27215C9.36901 4.27215 9.70342 4.00514 9.80792 3.65598C9.87062 3.45059 10.4349 1.60206 12.9221 1.60206C14.1761 1.60206 15.4092 2.44415 15.9944 3.71758C16.6215 5.11424 16.3498 6.57253 15.2629 7.78434Z" fill="white"/>
</svg>
