<svg width="19" height="19" viewBox="0 0 19 19" fill="none" xmlns="http://www.w3.org/2000/svg">
<path fill-rule="evenodd" clip-rule="evenodd" d="M9.94141 0.660889C12.3857 0.660889 12.6922 0.671185 13.6521 0.715053C14.6101 0.758802 15.2643 0.910919 15.8368 1.13337C16.4286 1.36337 16.9305 1.67111 17.4308 2.17145C17.9312 2.67179 18.2389 3.17374 18.4689 3.76556C18.6915 4.33805 18.8436 4.99228 18.8873 5.95023C18.9311 6.91016 18.9414 7.2166 18.9414 9.66085C18.9414 12.1052 18.9311 12.4116 18.8873 13.3715C18.8436 14.3295 18.6915 14.9837 18.4689 15.5562C18.2389 16.148 17.9312 16.65 17.4308 17.1503C16.9305 17.6507 16.4286 17.9584 15.8368 18.1884C15.2643 18.4109 14.6101 18.563 13.6521 18.6067C12.6922 18.6505 12.3857 18.6609 9.94141 18.6609C7.49715 18.6609 7.19066 18.6505 6.23074 18.6067C5.27274 18.563 4.61851 18.4109 4.04609 18.1884C3.45423 17.9584 2.95231 17.6507 2.45197 17.1503C1.95163 16.65 1.64389 16.148 1.41393 15.5562C1.19136 14.9837 1.03924 14.3295 0.995571 13.3715C0.951743 12.4116 0.941406 12.1052 0.941406 9.66085C0.941406 7.2166 0.951743 6.91016 0.995571 5.95023C1.03924 4.99228 1.19136 4.33805 1.41393 3.76556C1.64389 3.17374 1.95163 2.67179 2.45197 2.17145C2.95231 1.67111 3.45423 1.36337 4.04609 1.13337C4.61851 0.910919 5.27274 0.758802 6.23074 0.715053C7.19066 0.671185 7.49715 0.660889 9.94141 0.660889ZM9.94141 5.03927C7.38898 5.03927 5.3198 7.10847 5.3198 9.66085C5.3198 12.2133 7.38898 14.2825 9.94141 14.2825C12.4938 14.2825 14.563 12.2133 14.563 9.66085C14.563 7.10847 12.4938 5.03927 9.94141 5.03927ZM9.94141 12.6609C8.28456 12.6609 6.94138 11.3177 6.94138 9.66085C6.94138 8.00401 8.28456 6.66087 9.94141 6.66087C11.5983 6.66087 12.9414 8.00401 12.9414 9.66085C12.9414 11.3177 11.5983 12.6609 9.94141 12.6609ZM15.8257 4.85665C15.8257 4.26018 15.3421 3.77665 14.7457 3.77665C14.1492 3.77665 13.6656 4.26018 13.6656 4.85665C13.6656 5.45309 14.1492 5.93666 14.7457 5.93666C15.3421 5.93666 15.8257 5.45309 15.8257 4.85665Z" fill="white"/>
</svg>
