<svg width="624" height="102" viewBox="0 0 624 102" fill="none" xmlns="http://www.w3.org/2000/svg">
<path fill-rule="evenodd" clip-rule="evenodd" d="M155.482 0.705047C159.571 2.54264 161.42 7.40023 159.611 11.5548L122.369 97.0997C120.561 101.254 115.779 103.132 111.69 101.295C107.601 99.4573 105.752 94.5997 107.561 90.4451L144.803 4.90028C146.612 0.745728 151.393 -1.13254 155.482 0.705047ZM2.79834 2.00769C6.17944 -0.965011 11.2923 -0.59015 14.2183 2.84497L72.8652 71.6975V8.22753C72.8652 3.68473 76.49 0.00206215 80.9614 0.00206215C85.4327 0.00206215 89.0575 3.68473 89.0575 8.22753V93.7724C89.0575 97.2074 86.9565 100.281 83.7882 101.48C80.62 102.68 77.0518 101.752 74.8393 99.155L1.97422 13.6101C-0.95174 10.175 -0.582768 4.9804 2.79834 2.00769ZM225.072 0.00206215C229.544 0.00206215 233.168 3.68473 233.168 8.22753V85.5469H275.268C279.74 85.5469 283.364 89.2296 283.364 93.7724C283.364 98.3152 279.74 101.998 275.268 101.998H225.072C220.601 101.998 216.976 98.3152 216.976 93.7724V8.22753C216.976 3.68473 220.601 0.00206215 225.072 0.00206215ZM353.589 8.22966C353.589 3.68686 357.214 0.00419316 361.686 0.00419316H421.597C424.699 0.00419316 427.528 1.80475 428.882 4.64028C430.235 7.4758 429.875 10.8478 427.955 13.3225L403.059 45.4018C400.291 48.9691 395.2 49.5809 391.689 46.7682C388.177 43.9555 387.575 38.7835 390.344 35.2162L404.903 16.4551H361.686C357.214 16.4551 353.589 12.7725 353.589 8.22966ZM463.697 0.00419316C468.168 0.00419316 471.793 3.68686 471.793 8.22966V85.5491H513.893C518.364 85.5491 521.989 89.2317 521.989 93.7745C521.989 98.3173 518.364 102 513.893 102H463.697C459.225 102 455.601 98.3173 455.601 93.7745V8.22966C455.601 3.68686 459.225 0.00419316 463.697 0.00419316ZM575.423 16.4551C557.834 16.4551 543.039 31.6153 543.039 51.0021C543.039 70.3889 557.834 85.5491 575.423 85.5491C593.012 85.5491 607.808 70.3889 607.808 51.0021C607.808 31.6153 593.012 16.4551 575.423 16.4551ZM526.847 51.0021C526.847 23.1438 548.299 0.00419316 575.423 0.00419316C602.548 0.00419316 624 23.1438 624 51.0021C624 78.8604 602.548 102 575.423 102C548.299 102 526.847 78.8604 526.847 51.0021ZM8.09625 43.5815C12.5676 43.5815 16.1924 47.2642 16.1924 51.807V93.7724C16.1924 98.3152 12.5676 101.998 8.09625 101.998C3.62489 101.998 0.000130013 98.3152 0.000130013 93.7724V51.807C0.000130013 47.2642 3.62489 43.5815 8.09625 43.5815ZM385.117 55.236C388.628 58.0487 389.23 63.2207 386.462 66.788L371.902 85.5491H421.597C426.068 85.5491 429.693 89.2317 429.693 93.7745C429.693 98.3173 426.068 102 421.597 102H355.209C352.107 102 349.278 100.199 347.924 97.3639C346.571 94.5284 346.931 91.1564 348.851 88.6817L373.747 56.6024C376.515 53.035 381.606 52.4233 385.117 55.236ZM152.207 61.6931C152.207 57.1503 155.832 53.4676 160.303 53.4676H174.472C177.724 53.4676 180.661 55.4449 181.928 58.4881L195.286 90.5674C197.029 94.7512 195.103 99.5777 190.985 101.348C186.867 103.118 182.116 101.161 180.374 96.9774L169.106 69.9185H160.303C155.832 69.9185 152.207 66.2359 152.207 61.6931Z" fill="#E9E2E2"/>
<path d="M322.226 8.22547C322.226 3.68267 318.601 8.47468e-07 314.13 8.47468e-07C309.658 8.47468e-07 306.033 3.68267 306.033 8.22547V93.7724C306.033 98.3152 309.658 101.998 314.13 101.998C318.601 101.998 322.226 98.3152 322.226 93.7724V8.22547Z" fill="#E9E2E2"/>
</svg>
