<svg width="20" height="12" viewBox="0 0 20 12" fill="none" xmlns="http://www.w3.org/2000/svg">
<path d="M1 5C0.447715 5 0 5.44772 0 6C0 6.55228 0.447715 7 1 7V5ZM19 6L19.7071 6.70711C20.0976 6.31658 20.0976 5.68342 19.7071 5.29289L19 6ZM14.7071 0.292893C14.3166 -0.0976311 13.6834 -0.0976311 13.2929 0.292893C12.9024 0.683417 12.9024 1.31658 13.2929 1.70711L14.7071 0.292893ZM13.2929 10.2929C12.9024 10.6834 12.9024 11.3166 13.2929 11.7071C13.6834 12.0976 14.3166 12.0976 14.7071 11.7071L13.2929 10.2929ZM1 7H19V5H1V7ZM19.7071 5.29289L14.7071 0.292893L13.2929 1.70711L18.2929 6.70711L19.7071 5.29289ZM18.2929 5.29289L13.2929 10.2929L14.7071 11.7071L19.7071 6.70711L18.2929 5.29289Z" fill="#DF0000"/>
</svg>
