<svg width="18" height="18" viewBox="0 0 18 18" fill="none" xmlns="http://www.w3.org/2000/svg">
<path d="M3.195 14.0625C4.14 13.4025 5.0775 12.8962 6.0075 12.5437C6.9375 12.1912 7.935 12.015 9 12.015C10.065 12.015 11.0662 12.1912 12.0037 12.5437C12.9412 12.8962 13.8825 13.4025 14.8275 14.0625C15.4875 13.2525 15.9563 12.435 16.2337 11.61C16.5112 10.785 16.65 9.915 16.65 9C16.65 6.825 15.9187 5.00625 14.4562 3.54375C12.9937 2.08125 11.175 1.35 9 1.35C6.825 1.35 5.00625 2.08125 3.54375 3.54375C2.08125 5.00625 1.35 6.825 1.35 9C1.35 9.915 1.4925 10.785 1.7775 11.61C2.0625 12.435 2.535 13.2525 3.195 14.0625ZM9 9.675C8.13 9.675 7.39875 9.37875 6.80625 8.78625C6.21375 8.19375 5.9175 7.4625 5.9175 6.5925C5.9175 5.7225 6.21375 4.99125 6.80625 4.39875C7.39875 3.80625 8.13 3.51 9 3.51C9.87 3.51 10.6012 3.80625 11.1937 4.39875C11.7863 4.99125 12.0825 5.7225 12.0825 6.5925C12.0825 7.4625 11.7863 8.19375 11.1937 8.78625C10.6012 9.37875 9.87 9.675 9 9.675ZM9 18C7.77 18 6.6075 17.7638 5.5125 17.2912C4.4175 16.8187 3.46125 16.1737 2.64375 15.3562C1.82625 14.5387 1.18125 13.5825 0.70875 12.4875C0.23625 11.3925 0 10.23 0 9C0 7.755 0.23625 6.58875 0.70875 5.50125C1.18125 4.41375 1.82625 3.46125 2.64375 2.64375C3.46125 1.82625 4.4175 1.18125 5.5125 0.70875C6.6075 0.23625 7.77 0 9 0C10.245 0 11.4112 0.23625 12.4987 0.70875C13.5862 1.18125 14.5387 1.82625 15.3562 2.64375C16.1737 3.46125 16.8187 4.41375 17.2912 5.50125C17.7638 6.58875 18 7.755 18 9C18 10.23 17.7638 11.3925 17.2912 12.4875C16.8187 13.5825 16.1737 14.5387 15.3562 15.3562C14.5387 16.1737 13.5862 16.8187 12.4987 17.2912C11.4112 17.7638 10.245 18 9 18Z" fill="white"/>
</svg>
